<?xml version="1.0" encoding="utf-8"?>
<!-- Generator: Adobe Illustrator 23.0.6, SVG Export Plug-In . SVG Version: 6.00 Build 0)  -->
<svg version="1.1" id="Layer_1" xmlns="http://www.w3.org/2000/svg" xmlns:xlink="http://www.w3.org/1999/xlink" x="0px" y="0px"
	 viewBox="0 0 702 703" style="enable-background:new 0 0 702 703;" xml:space="preserve">
<style type="text/css">
	.st0{fill:#1BE789;}
</style>
<g>
	<path class="st0" d="M382.76,319.54c6.3-1,11.34-6.04,12.34-12.34c1.58-10.01-7.08-18.67-17.09-17.09
		c-6.3,1-11.34,6.04-12.34,12.34C364.09,312.46,372.76,321.13,382.76,319.54z"/>
	
		<ellipse transform="matrix(0.7077 -0.7065 0.7065 0.7077 -370.7414 343.7255)" class="st0" cx="230.01" cy="619.9" rx="14.92" ry="14.88"/>
	<path class="st0" d="M517.22,214.85c-6.3,1-11.34,6.04-12.34,12.34c-1.58,10.01,7.08,18.67,17.09,17.09
		c6.3-1,11.34-6.04,12.34-12.34C535.89,221.94,527.23,213.27,517.22,214.85z"/>
	
		<ellipse transform="matrix(0.7077 -0.7065 0.7065 0.7077 -143.7493 397.9427)" class="st0" cx="409.08" cy="372.71" rx="14.88" ry="14.92"/>
	
		<ellipse transform="matrix(0.7068 -0.7074 0.7074 0.7068 46.6158 435.4523)" class="st0" cx="548.65" cy="161.49" rx="14.88" ry="14.92"/>
	<path class="st0" d="M-0.17,0.39V702.5h702.11V0.39H-0.17z M409.45,401.77c-12.73,0-23.52-8.3-27.27-19.78H242.4
		c-2.54,0-4.6,2.06-4.6,4.6v206.18c11.87,3.52,20.53,14.5,20.53,27.5c0,16.52-13.96,29.78-30.73,28.62
		c-14.27-0.99-25.78-12.64-26.6-26.93c-0.79-13.74,8.1-25.52,20.48-29.19V381.98v-11.72c0-2.54,2.06-4.6,4.6-4.6h11.72h143.93
		c3.38-12.68,15.23-21.9,29.12-21.24c14.85,0.71,26.86,12.98,27.27,27.84C438.58,388.48,425.57,401.77,409.45,401.77z
		 M519.97,258.63c-12.83,0-23.69-8.42-27.36-20.04H241.7c-2.52,0-4.56,2.04-4.56,4.56v48.7c0,2.52,2.04,4.56,4.56,4.56h111.75
		c3.71-11.55,14.53-19.9,27.31-19.9c16.52,0,29.78,13.96,28.62,30.73c-0.98,14.2-12.52,25.68-26.73,26.59
		c-13.59,0.87-25.31-7.73-29.2-19.84H225.38c-2.52,0-4.56-2.04-4.56-4.56v-13.01v-57.82v-12.74c0-2.52,2.04-4.56,4.56-4.56h11.76
		h255.46c3.84-12.17,15.58-20.83,29.21-19.98c14.22,0.89,25.79,12.38,26.77,26.59C549.74,244.67,536.48,258.63,519.97,258.63z
		 M549.03,189.8c-12.92,0-23.85-8.55-27.44-20.29H173.04c-2.5,0-4.52,2.02-4.52,4.52v390.11c11.75,3.59,20.29,14.51,20.29,27.44
		c0,16.52-13.96,29.78-30.73,28.62c-14.25-0.98-25.74-12.6-26.6-26.85c-0.82-13.69,7.96-25.45,20.24-29.2V169.51v-12.27
		c0-2.5,2.02-4.52,4.52-4.52h12.27h353.07c3.75-12.28,15.52-21.06,29.2-20.24c14.25,0.85,25.87,12.35,26.85,26.6
		C578.8,175.84,565.55,189.8,549.03,189.8z"/>
	
		<ellipse transform="matrix(0.7072 -0.707 0.707 0.7072 -371.2002 286.0215)" class="st0" cx="159.75" cy="591.21" rx="14.92" ry="14.88"/>
</g>
</svg>
